<svg xmlns="http://www.w3.org/2000/svg" viewBox="0 0 1200 900" role="img" aria-labelledby="title desc">
  <title id="title">Werkstattdetail mit Werkzeug und Fahrzeugfront</title>
  <desc id="desc">Werkstattboden mit Fahrzeugfront, Werkzeugwagen, Reifen und Lichtreflexen ohne Personen.</desc>
  <defs>
    <linearGradient id="bg" x1="0" x2="1" y1="0" y2="1">
      <stop offset="0" stop-color="#e8edf0"/>
      <stop offset=".52" stop-color="#b7c3c9"/>
      <stop offset="1" stop-color="#303942"/>
    </linearGradient>
    <linearGradient id="hood" x1="0" x2="1" y1="0" y2="1">
      <stop offset="0" stop-color="#303942"/>
      <stop offset=".62" stop-color="#11171d"/>
      <stop offset="1" stop-color="#05080b"/>
    </linearGradient>
    <linearGradient id="cart" x1="0" x2="1" y1="0" y2="1">
      <stop offset="0" stop-color="#ef4a3d"/>
      <stop offset="1" stop-color="#a91614"/>
    </linearGradient>
    <filter id="shadow" x="-20%" y="-20%" width="140%" height="150%">
      <feDropShadow dx="0" dy="24" stdDeviation="20" flood-color="#000000" flood-opacity=".35"/>
    </filter>
  </defs>
  <rect width="1200" height="900" fill="url(#bg)"/>
  <path d="M0 600h1200v300H0z" fill="#232b31"/>
  <path d="M0 600h1200" stroke="#f5f7f7" stroke-width="3" opacity=".5"/>
  <g transform="translate(120 195)" filter="url(#shadow)">
    <path d="M44 320c27-90 81-154 164-192 49-23 118-35 206-35h236c85 0 157 16 216 49 68 38 112 97 130 178 6 28-15 55-44 55H88c-29 0-52-27-44-55z" fill="url(#hood)"/>
    <path d="M243 123h556c-45-44-98-68-160-72H392c-57 3-107 27-149 72z" fill="#d9ecf2" opacity=".84"/>
    <path d="M88 327h860" stroke="#d83a31" stroke-width="11"/>
    <rect x="130" y="252" width="144" height="36" rx="18" fill="#f7f3df"/>
    <rect x="732" y="252" width="144" height="36" rx="18" fill="#f7f3df"/>
    <circle cx="241" cy="385" r="78" fill="#070a0d"/>
    <circle cx="241" cy="385" r="36" fill="#cbd3d7"/>
    <circle cx="789" cy="385" r="78" fill="#070a0d"/>
    <circle cx="789" cy="385" r="36" fill="#cbd3d7"/>
  </g>
  <g transform="translate(802 112)" filter="url(#shadow)">
    <rect width="210" height="320" rx="12" fill="url(#cart)"/>
    <rect x="24" y="34" width="162" height="34" rx="5" fill="#78100f" opacity=".55"/>
    <rect x="24" y="96" width="162" height="18" rx="4" fill="#ffffff" opacity=".78"/>
    <rect x="24" y="136" width="162" height="18" rx="4" fill="#ffffff" opacity=".55"/>
    <rect x="24" y="176" width="162" height="18" rx="4" fill="#ffffff" opacity=".55"/>
    <circle cx="48" cy="330" r="16" fill="#11171d"/>
    <circle cx="162" cy="330" r="16" fill="#11171d"/>
  </g>
  <g transform="translate(86 118)" opacity=".72">
    <rect x="0" y="0" width="230" height="18" rx="9" fill="#f3c042"/>
    <rect x="30" y="52" width="170" height="10" rx="5" fill="#ffffff"/>
    <rect x="66" y="92" width="118" height="10" rx="5" fill="#ffffff"/>
  </g>
  <g transform="translate(964 565)">
    <circle cx="70" cy="70" r="70" fill="#090d11"/>
    <circle cx="70" cy="70" r="38" fill="#89959d"/>
    <circle cx="70" cy="70" r="18" fill="#242d34"/>
  </g>
</svg>
