<svg xmlns="http://www.w3.org/2000/svg" viewBox="0 0 1800 1100" role="img" aria-labelledby="title desc">
  <title id="title">Fahrzeug in einer modernen Werkstatt</title>
  <desc id="desc">Eine dunkle Werkstatt mit rotem Fahrzeug, Hebebühne, Lichtleisten und Werkzeugen ohne Personen.</desc>
  <defs>
    <linearGradient id="wall" x1="0" x2="1" y1="0" y2="1">
      <stop offset="0" stop-color="#262e34"/>
      <stop offset=".52" stop-color="#343b3e"/>
      <stop offset="1" stop-color="#10151a"/>
    </linearGradient>
    <linearGradient id="floor" x1="0" x2="1" y1="0" y2="0">
      <stop offset="0" stop-color="#15191e"/>
      <stop offset=".45" stop-color="#2c3338"/>
      <stop offset="1" stop-color="#11161a"/>
    </linearGradient>
    <linearGradient id="redcar" x1="0" x2="1" y1="0" y2="1">
      <stop offset="0" stop-color="#fa493d"/>
      <stop offset=".46" stop-color="#c4201c"/>
      <stop offset="1" stop-color="#7b1112"/>
    </linearGradient>
    <linearGradient id="glass" x1="0" x2="1" y1="0" y2="0">
      <stop offset="0" stop-color="#e7f7ff" stop-opacity=".85"/>
      <stop offset="1" stop-color="#435766" stop-opacity=".95"/>
    </linearGradient>
    <filter id="softShadow" x="-30%" y="-40%" width="160%" height="190%">
      <feDropShadow dx="0" dy="32" stdDeviation="32" flood-color="#000000" flood-opacity=".45"/>
    </filter>
  </defs>
  <rect width="1800" height="1100" fill="url(#wall)"/>
  <rect y="760" width="1800" height="340" fill="url(#floor)"/>
  <path d="M0 760h1800" stroke="#616a70" stroke-width="2" opacity=".55"/>
  <g opacity=".42">
    <rect x="1110" y="110" width="12" height="660" fill="#0c1116"/>
    <rect x="1420" y="90" width="14" height="700" fill="#0c1116"/>
    <rect x="1210" y="205" width="480" height="26" rx="13" fill="#f3c042"/>
    <rect x="1234" y="310" width="380" height="12" rx="6" fill="#d8eef8"/>
    <rect x="1180" y="420" width="460" height="12" rx="6" fill="#d8eef8"/>
  </g>
  <g opacity=".24">
    <path d="M1120 770l260-630M1430 780l-120-620" stroke="#eef7fa" stroke-width="10"/>
    <path d="M1140 765h380" stroke="#eef7fa" stroke-width="9"/>
  </g>
  <g transform="translate(675 518)" filter="url(#softShadow)">
    <path d="M94 215c24-79 83-129 167-150l155-38c58-14 129 0 179 36l115 82c71 8 128 41 169 98 14 20 7 49-18 58-83 31-218 48-405 48-172 0-305-16-399-49-23-8-30-36-18-56 12-19 30-29 55-29z" fill="url(#redcar)"/>
    <path d="M276 91c53-24 115-32 179-22 61 9 115 38 158 84H212c13-28 35-49 64-62z" fill="url(#glass)"/>
    <path d="M618 154l87 2 57 47-113-11z" fill="#5f0c0c" opacity=".75"/>
    <path d="M68 234h780" stroke="#ff7d70" stroke-width="9" opacity=".65"/>
    <circle cx="227" cy="326" r="78" fill="#0b0e11"/>
    <circle cx="227" cy="326" r="41" fill="#c7d0d5"/>
    <circle cx="227" cy="326" r="17" fill="#465057"/>
    <circle cx="682" cy="326" r="78" fill="#0b0e11"/>
    <circle cx="682" cy="326" r="41" fill="#c7d0d5"/>
    <circle cx="682" cy="326" r="17" fill="#465057"/>
    <path d="M46 245c33-6 81-9 145-9" stroke="#f7e7d1" stroke-width="16" stroke-linecap="round"/>
    <path d="M756 239c49 0 83 3 103 9" stroke="#f7e7d1" stroke-width="16" stroke-linecap="round"/>
  </g>
  <g transform="translate(1180 600)" opacity=".72">
    <rect x="0" y="0" width="250" height="140" rx="10" fill="#192026"/>
    <rect x="22" y="20" width="206" height="22" rx="4" fill="#d83a31"/>
    <rect x="22" y="58" width="160" height="10" rx="5" fill="#8da0aa"/>
    <rect x="22" y="82" width="188" height="10" rx="5" fill="#8da0aa"/>
    <rect x="22" y="106" width="126" height="10" rx="5" fill="#8da0aa"/>
  </g>
  <g opacity=".18">
    <path d="M1030 930c190-32 402-33 632-1" stroke="#ffffff" stroke-width="4"/>
    <path d="M1240 980c100-14 206-13 316 3" stroke="#ffffff" stroke-width="3"/>
  </g>
</svg>
